# https://github.com/mikedh/trimesh
v 0.17029539 0.15042347 0.00000000
v 0.16359740 0.15616866 0.00000000
v 0.14955071 0.16531967 0.00000000
v 0.14220202 0.16872547 0.00000000
v 0.13462869 0.17138246 0.00000000
v 0.11878486 0.17441902 0.00000000
v 0.11051436 0.17479860 0.00000000
v 0.10249367 0.17448293 0.00000000
v 0.08790475 0.17195763 0.00000000
v 0.07525240 0.16690702 0.00000000
v 0.06453664 0.15933110 0.00000000
v 0.05990498 0.15459616 0.00000000
v 0.05578974 0.14926410 0.00000000
v 0.04920536 0.13691128 0.00000000
v 0.04481577 0.12230686 0.00000000
v 0.04262097 0.10545084 0.00000000
v 0.04234662 0.09617848 0.00000000
v 0.04262097 0.08693516 0.00000000
v 0.04481577 0.07012562 0.00000000
v 0.04920536 0.05555218 0.00000000
v 0.05578974 0.04321486 0.00000000
v 0.05990498 0.03788473 0.00000000
v 0.06453664 0.03314979 0.00000000
v 0.07525240 0.02557387 0.00000000
v 0.08790475 0.02052326 0.00000000
v 0.10249367 0.01799796 0.00000000
v 0.11051436 0.01768230 0.00000000
v 0.11878486 0.01806187 0.00000000
v 0.13462869 0.02109843 0.00000000
v 0.14220202 0.02375542 0.00000000
v 0.14955071 0.02717930 0.00000000
v 0.16359740 0.03635096 0.00000000
v 0.17029539 0.04209874 0.00000000
v 0.17029539 0.01483165 0.00000000
v 0.16335468 0.01047304 0.00000000
v 0.14885354 0.00349101 0.00000000
v 0.14129312 0.00086759 0.00000000
v 0.13354162 -0.00115679 0.00000000
v 0.11738794 -0.00347036 0.00000000
v 0.10898575 -0.00375955 0.00000000
v 0.09832808 -0.00334125 0.00000000
v 0.07875568 0.00000516 0.00000000
v 0.06150718 0.00669800 0.00000000
v 0.04658258 0.01673724 0.00000000
v 0.03999174 0.02301177 0.00000000
v 0.03409484 0.03002027 0.00000000
v 0.02465981 0.04586927 0.00000000
v 0.01836978 0.06416094 0.00000000
v 0.01522477 0.08489530 0.00000000
v 0.01483165 0.09617848 0.00000000
v 0.01522477 0.10749006 0.00000000
v 0.01836978 0.12826573 0.00000000
v 0.02465981 0.14657806 0.00000000
v 0.03409484 0.16242706 0.00000000
v 0.03999174 0.16942780 0.00000000
v 0.04658258 0.17571202 0.00000000
v 0.06150718 0.18576676 0.00000000
v 0.07875568 0.19246992 0.00000000
v 0.09832808 0.19582150 0.00000000
v 0.10898575 0.19624045 0.00000000
v 0.11749639 0.19595383 0.00000000
v 0.13377401 0.19366092 0.00000000
v 0.14154100 0.19165462 0.00000000
v 0.14908593 0.18907509 0.00000000
v 0.16346313 0.18219634 0.00000000
v 0.17029539 0.17789713 0.00000000
v 0.17029539 0.15042347 0.04000000
v 0.16359740 0.15616866 0.04000000
v 0.14955071 0.16531967 0.04000000
v 0.14220202 0.16872547 0.04000000
v 0.13462869 0.17138246 0.04000000
v 0.11878486 0.17441902 0.04000000
v 0.11051436 0.17479860 0.04000000
v 0.10249367 0.17448293 0.04000000
v 0.08790475 0.17195763 0.04000000
v 0.07525240 0.16690702 0.04000000
v 0.06453664 0.15933110 0.04000000
v 0.05990498 0.15459616 0.04000000
v 0.05578974 0.14926410 0.04000000
v 0.04920536 0.13691128 0.04000000
v 0.04481577 0.12230686 0.04000000
v 0.04262097 0.10545084 0.04000000
v 0.04234662 0.09617848 0.04000000
v 0.04262097 0.08693516 0.04000000
v 0.04481577 0.07012562 0.04000000
v 0.04920536 0.05555218 0.04000000
v 0.05578974 0.04321486 0.04000000
v 0.05990498 0.03788473 0.04000000
v 0.06453664 0.03314979 0.04000000
v 0.07525240 0.02557387 0.04000000
v 0.08790475 0.02052326 0.04000000
v 0.10249367 0.01799796 0.04000000
v 0.11051436 0.01768230 0.04000000
v 0.11878486 0.01806187 0.04000000
v 0.13462869 0.02109843 0.04000000
v 0.14220202 0.02375542 0.04000000
v 0.14955071 0.02717930 0.04000000
v 0.16359740 0.03635096 0.04000000
v 0.17029539 0.04209874 0.04000000
v 0.17029539 0.01483165 0.04000000
v 0.16335468 0.01047304 0.04000000
v 0.14885354 0.00349101 0.04000000
v 0.14129312 0.00086759 0.04000000
v 0.13354162 -0.00115679 0.04000000
v 0.11738794 -0.00347036 0.04000000
v 0.10898575 -0.00375955 0.04000000
v 0.09832808 -0.00334125 0.04000000
v 0.07875568 0.00000516 0.04000000
v 0.06150718 0.00669800 0.04000000
v 0.04658258 0.01673724 0.04000000
v 0.03999174 0.02301177 0.04000000
v 0.03409484 0.03002027 0.04000000
v 0.02465981 0.04586927 0.04000000
v 0.01836978 0.06416094 0.04000000
v 0.01522477 0.08489530 0.04000000
v 0.01483165 0.09617848 0.04000000
v 0.01522477 0.10749006 0.04000000
v 0.01836978 0.12826573 0.04000000
v 0.02465981 0.14657806 0.04000000
v 0.03409484 0.16242706 0.04000000
v 0.03999174 0.16942780 0.04000000
v 0.04658258 0.17571202 0.04000000
v 0.06150718 0.18576676 0.04000000
v 0.07875568 0.19246992 0.04000000
v 0.09832808 0.19582150 0.04000000
v 0.10898575 0.19624045 0.04000000
v 0.11749639 0.19595383 0.04000000
v 0.13377401 0.19366092 0.04000000
v 0.14154100 0.19165462 0.04000000
v 0.14908593 0.18907509 0.04000000
v 0.16346313 0.18219634 0.04000000
v 0.17029539 0.17789713 0.04000000
vn 0.34913454 -0.75944470 -0.54895248
vn -0.41483538 -0.55347034 -0.72220647
vn -0.33435785 -0.60383393 -0.72359479
vn -0.26180735 -0.64477975 -0.71813368
vn -0.17955430 -0.66586960 -0.72413944
vn -0.08098987 -0.68544734 -0.72360389
vn -0.00227531 -0.69725565 -0.71681893
vn 0.07273911 -0.68778124 -0.72226448
vn 0.18560885 -0.65633187 -0.73128506
vn 0.32389143 -0.59627408 -0.73454173
vn 0.44473353 -0.52171444 -0.72802893
vn 0.52323102 -0.45506948 -0.72051445
vn 0.57727491 -0.37288071 -0.72643903
vn 0.63189179 -0.26036823 -0.73001449
vn 0.67264874 -0.14388188 -0.72583861
vn 0.69330837 -0.05525505 -0.71851958
vn 0.70031378 0.00003253 -0.71383514
vn 0.69326483 0.05540748 -0.71854985
vn 0.67255281 0.14419196 -0.72586596
vn 0.63175519 0.26072112 -0.73000677
vn 0.57718116 0.37310521 -0.72639824
vn 0.52320708 0.45512940 -0.72049398
vn 0.44473353 0.52171444 -0.72802893
vn 0.32389143 0.59627408 -0.73454173
vn 0.18560885 0.65633187 -0.73128506
vn 0.07273911 0.68778124 -0.72226448
vn -0.00227531 0.69725565 -0.71681893
vn -0.08098987 0.68544734 -0.72360389
vn -0.17955430 0.66586960 -0.72413944
vn -0.26236813 0.64429061 -0.71836800
vn -0.33533887 0.60342909 -0.72347853
vn -0.41524159 0.55328923 -0.72211180
vn 0.34905192 0.75948715 -0.54894628
vn 0.69164820 -0.38237876 -0.61270649
vn 0.34782228 -0.62958807 -0.69472191
vn 0.27447374 -0.66515782 -0.69442727
vn 0.20790268 -0.68487043 -0.69837595
vn 0.14211539 -0.70522579 -0.69459327
vn 0.06341296 -0.71603879 -0.69517425
vn -0.00172479 -0.71520266 -0.69891501
vn -0.07506961 -0.71724727 -0.69276324
vn -0.19408529 -0.70199312 -0.68522738
vn -0.33802995 -0.64748921 -0.68300328
vn -0.45395894 -0.56542982 -0.68862936
vn -0.52384893 -0.49266210 -0.69488586
vn -0.59039501 -0.41990296 -0.68928604
vn -0.66122528 -0.30652674 -0.68470613
vn -0.70535394 -0.17326254 -0.68735428
vn -0.71657654 -0.06660365 -0.69432126
vn -0.71476728 -0.00003123 -0.69936238
vn -0.71656764 0.06646469 -0.69434376
vn -0.70540443 0.17303495 -0.68735980
vn -0.66130952 0.30642644 -0.68466967
vn -0.59032565 0.42009585 -0.68922790
vn -0.52380382 0.49250852 -0.69502872
vn -0.45438203 0.56509712 -0.68862342
vn -0.33843839 0.64729720 -0.68298301
vn -0.19436487 0.70194289 -0.68519959
vn -0.07518535 0.71725556 -0.69274211
vn -0.00201124 0.71512876 -0.69898985
vn 0.06230515 0.71597009 -0.69534517
vn 0.14035134 0.70554103 -0.69463181
vn 0.20536652 0.68542309 -0.69858413
vn 0.27221730 0.66632161 -0.69419972
vn 0.34750485 0.63016760 -0.69435523
vn 0.69177715 0.38203728 -0.61277393
vn 0.34913454 -0.75944470 0.54895248
vn -0.41483538 -0.55347034 0.72220647
vn -0.33435785 -0.60383393 0.72359479
vn -0.26180735 -0.64477975 0.71813368
vn -0.17955430 -0.66586960 0.72413944
vn -0.08098987 -0.68544734 0.72360389
vn -0.00227531 -0.69725565 0.71681893
vn 0.07273911 -0.68778124 0.72226448
vn 0.18560885 -0.65633187 0.73128506
vn 0.32389143 -0.59627408 0.73454173
vn 0.44473353 -0.52171444 0.72802893
vn 0.52323102 -0.45506948 0.72051445
vn 0.57727491 -0.37288071 0.72643903
vn 0.63189179 -0.26036823 0.73001449
vn 0.67264874 -0.14388188 0.72583861
vn 0.69330837 -0.05525505 0.71851958
vn 0.70031378 0.00003253 0.71383514
vn 0.69326483 0.05540748 0.71854985
vn 0.67255281 0.14419196 0.72586596
vn 0.63175519 0.26072112 0.73000677
vn 0.57718116 0.37310521 0.72639824
vn 0.52320708 0.45512940 0.72049398
vn 0.44473353 0.52171444 0.72802893
vn 0.32389143 0.59627408 0.73454173
vn 0.18560885 0.65633187 0.73128506
vn 0.07273911 0.68778124 0.72226448
vn -0.00227531 0.69725565 0.71681893
vn -0.08098987 0.68544734 0.72360389
vn -0.17955430 0.66586960 0.72413944
vn -0.26236813 0.64429061 0.71836800
vn -0.33533887 0.60342909 0.72347853
vn -0.41524159 0.55328923 0.72211180
vn 0.34905192 0.75948715 0.54894628
vn 0.69164820 -0.38237876 0.61270649
vn 0.34782228 -0.62958807 0.69472191
vn 0.27447374 -0.66515782 0.69442727
vn 0.20790268 -0.68487043 0.69837595
vn 0.14211539 -0.70522579 0.69459327
vn 0.06341296 -0.71603879 0.69517425
vn -0.00172479 -0.71520266 0.69891501
vn -0.07506961 -0.71724727 0.69276324
vn -0.19408529 -0.70199312 0.68522738
vn -0.33802995 -0.64748921 0.68300328
vn -0.45395894 -0.56542982 0.68862936
vn -0.52384893 -0.49266210 0.69488586
vn -0.59039501 -0.41990296 0.68928604
vn -0.66122528 -0.30652674 0.68470613
vn -0.70535394 -0.17326254 0.68735428
vn -0.71657654 -0.06660365 0.69432126
vn -0.71476728 -0.00003123 0.69936238
vn -0.71656764 0.06646469 0.69434376
vn -0.70540443 0.17303495 0.68735980
vn -0.66130952 0.30642644 0.68466967
vn -0.59032565 0.42009585 0.68922790
vn -0.52380382 0.49250852 0.69502872
vn -0.45438203 0.56509712 0.68862342
vn -0.33843839 0.64729720 0.68298301
vn -0.19436487 0.70194289 0.68519959
vn -0.07518535 0.71725556 0.69274211
vn -0.00201124 0.71512876 0.69898985
vn 0.06230515 0.71597009 0.69534517
vn 0.14035134 0.70554103 0.69463181
vn 0.20536652 0.68542309 0.69858413
vn 0.27221730 0.66632161 0.69419972
vn 0.34750485 0.63016760 0.69435523
vn 0.69177715 0.38203728 0.61277393
f 65//65 66//66 1//1
f 63//63 64//64 65//65
f 61//61 62//62 63//63
f 59//59 60//60 61//61
f 57//57 58//58 59//59
f 55//55 56//56 57//57
f 53//53 54//54 55//55
f 51//51 52//52 53//53
f 49//49 50//50 51//51
f 47//47 48//48 49//49
f 45//45 46//46 47//47
f 43//43 44//44 45//45
f 41//41 42//42 43//43
f 39//39 40//40 41//41
f 37//37 38//38 39//39
f 35//35 36//36 37//37
f 33//33 34//34 35//35
f 65//65 1//1 2//2
f 61//61 63//63 65//65
f 57//57 59//59 61//61
f 53//53 55//55 57//57
f 49//49 51//51 53//53
f 45//45 47//47 49//49
f 41//41 43//43 45//45
f 37//37 39//39 41//41
f 33//33 35//35 37//37
f 65//65 2//2 3//3
f 57//57 61//61 65//65
f 49//49 53//53 57//57
f 41//41 45//45 49//49
f 32//32 33//33 37//37
f 65//65 3//3 4//4
f 31//31 32//32 37//37
f 65//65 4//4 5//5
f 31//31 37//37 41//41
f 65//65 5//5 6//6
f 30//30 31//31 41//41
f 65//65 6//6 7//7
f 29//29 30//30 41//41
f 65//65 7//7 8//8
f 28//28 29//29 41//41
f 57//57 65//65 8//8
f 27//27 28//28 41//41
f 57//57 8//8 9//9
f 26//26 27//27 41//41
f 57//57 9//9 10//10
f 25//25 26//26 41//41
f 57//57 10//10 11//11
f 24//24 25//25 41//41
f 57//57 11//11 12//12
f 23//23 24//24 41//41
f 57//57 12//12 13//13
f 22//22 23//23 41//41
f 57//57 13//13 14//14
f 22//22 41//41 49//49
f 57//57 14//14 15//15
f 21//21 22//22 49//49
f 49//49 57//57 15//15
f 20//20 21//21 49//49
f 49//49 15//15 16//16
f 19//19 20//20 49//49
f 49//49 16//16 17//17
f 18//18 19//19 49//49
f 49//49 17//17 18//18
f 67//67 132//132 131//131
f 131//131 130//130 129//129
f 129//129 128//128 127//127
f 127//127 126//126 125//125
f 125//125 124//124 123//123
f 123//123 122//122 121//121
f 121//121 120//120 119//119
f 119//119 118//118 117//117
f 117//117 116//116 115//115
f 115//115 114//114 113//113
f 113//113 112//112 111//111
f 111//111 110//110 109//109
f 109//109 108//108 107//107
f 107//107 106//106 105//105
f 105//105 104//104 103//103
f 103//103 102//102 101//101
f 101//101 100//100 99//99
f 68//68 67//67 131//131
f 131//131 129//129 127//127
f 127//127 125//125 123//123
f 123//123 121//121 119//119
f 119//119 117//117 115//115
f 115//115 113//113 111//111
f 111//111 109//109 107//107
f 107//107 105//105 103//103
f 103//103 101//101 99//99
f 69//69 68//68 131//131
f 131//131 127//127 123//123
f 123//123 119//119 115//115
f 115//115 111//111 107//107
f 103//103 99//99 98//98
f 70//70 69//69 131//131
f 103//103 98//98 97//97
f 71//71 70//70 131//131
f 107//107 103//103 97//97
f 72//72 71//71 131//131
f 107//107 97//97 96//96
f 73//73 72//72 131//131
f 107//107 96//96 95//95
f 74//74 73//73 131//131
f 107//107 95//95 94//94
f 74//74 131//131 123//123
f 107//107 94//94 93//93
f 75//75 74//74 123//123
f 107//107 93//93 92//92
f 76//76 75//75 123//123
f 107//107 92//92 91//91
f 77//77 76//76 123//123
f 107//107 91//91 90//90
f 78//78 77//77 123//123
f 107//107 90//90 89//89
f 79//79 78//78 123//123
f 107//107 89//89 88//88
f 80//80 79//79 123//123
f 115//115 107//107 88//88
f 81//81 80//80 123//123
f 115//115 88//88 87//87
f 81//81 123//123 115//115
f 115//115 87//87 86//86
f 82//82 81//81 115//115
f 115//115 86//86 85//85
f 83//83 82//82 115//115
f 115//115 85//85 84//84
f 84//84 83//83 115//115
f 67//67 68//68 1//1
f 1//1 68//68 2//2
f 68//68 69//69 2//2
f 2//2 69//69 3//3
f 69//69 70//70 3//3
f 3//3 70//70 4//4
f 70//70 71//71 4//4
f 4//4 71//71 5//5
f 71//71 72//72 5//5
f 5//5 72//72 6//6
f 72//72 73//73 6//6
f 6//6 73//73 7//7
f 73//73 74//74 7//7
f 7//7 74//74 8//8
f 74//74 75//75 8//8
f 8//8 75//75 9//9
f 75//75 76//76 9//9
f 9//9 76//76 10//10
f 76//76 77//77 10//10
f 10//10 77//77 11//11
f 77//77 78//78 11//11
f 11//11 78//78 12//12
f 78//78 79//79 12//12
f 12//12 79//79 13//13
f 79//79 80//80 13//13
f 13//13 80//80 14//14
f 80//80 81//81 14//14
f 14//14 81//81 15//15
f 81//81 82//82 15//15
f 15//15 82//82 16//16
f 82//82 83//83 16//16
f 16//16 83//83 17//17
f 83//83 84//84 17//17
f 17//17 84//84 18//18
f 84//84 85//85 18//18
f 18//18 85//85 19//19
f 85//85 86//86 19//19
f 19//19 86//86 20//20
f 86//86 87//87 20//20
f 20//20 87//87 21//21
f 87//87 88//88 21//21
f 21//21 88//88 22//22
f 88//88 89//89 22//22
f 22//22 89//89 23//23
f 89//89 90//90 23//23
f 23//23 90//90 24//24
f 90//90 91//91 24//24
f 24//24 91//91 25//25
f 91//91 92//92 25//25
f 25//25 92//92 26//26
f 92//92 93//93 26//26
f 26//26 93//93 27//27
f 93//93 94//94 27//27
f 27//27 94//94 28//28
f 94//94 95//95 28//28
f 28//28 95//95 29//29
f 95//95 96//96 29//29
f 29//29 96//96 30//30
f 96//96 97//97 30//30
f 30//30 97//97 31//31
f 97//97 98//98 31//31
f 31//31 98//98 32//32
f 98//98 99//99 32//32
f 32//32 99//99 33//33
f 99//99 100//100 33//33
f 33//33 100//100 34//34
f 100//100 101//101 34//34
f 34//34 101//101 35//35
f 101//101 102//102 35//35
f 35//35 102//102 36//36
f 102//102 103//103 36//36
f 36//36 103//103 37//37
f 103//103 104//104 37//37
f 37//37 104//104 38//38
f 104//104 105//105 38//38
f 38//38 105//105 39//39
f 105//105 106//106 39//39
f 39//39 106//106 40//40
f 106//106 107//107 40//40
f 40//40 107//107 41//41
f 107//107 108//108 41//41
f 41//41 108//108 42//42
f 108//108 109//109 42//42
f 42//42 109//109 43//43
f 109//109 110//110 43//43
f 43//43 110//110 44//44
f 110//110 111//111 44//44
f 44//44 111//111 45//45
f 111//111 112//112 45//45
f 45//45 112//112 46//46
f 112//112 113//113 46//46
f 46//46 113//113 47//47
f 113//113 114//114 47//47
f 47//47 114//114 48//48
f 114//114 115//115 48//48
f 48//48 115//115 49//49
f 115//115 116//116 49//49
f 49//49 116//116 50//50
f 116//116 117//117 50//50
f 50//50 117//117 51//51
f 117//117 118//118 51//51
f 51//51 118//118 52//52
f 118//118 119//119 52//52
f 52//52 119//119 53//53
f 119//119 120//120 53//53
f 53//53 120//120 54//54
f 120//120 121//121 54//54
f 54//54 121//121 55//55
f 121//121 122//122 55//55
f 55//55 122//122 56//56
f 122//122 123//123 56//56
f 56//56 123//123 57//57
f 123//123 124//124 57//57
f 57//57 124//124 58//58
f 124//124 125//125 58//58
f 58//58 125//125 59//59
f 125//125 126//126 59//59
f 59//59 126//126 60//60
f 126//126 127//127 60//60
f 60//60 127//127 61//61
f 127//127 128//128 61//61
f 61//61 128//128 62//62
f 128//128 129//129 62//62
f 62//62 129//129 63//63
f 129//129 130//130 63//63
f 63//63 130//130 64//64
f 130//130 131//131 64//64
f 64//64 131//131 65//65
f 132//132 67//67 66//66
f 66//66 67//67 1//1
f 131//131 132//132 65//65
f 65//65 132//132 66//66

