# https://github.com/mikedh/trimesh
v 0.04234068 0.15691946 0.00000000
v 0.04234068 0.01092988 0.00000000
v 0.04217252 0.00407716 0.00000000
v 0.04082731 -0.00816851 0.00000000
v 0.03813688 -0.01846782 0.00000000
v 0.03410123 -0.02682077 0.00000000
v 0.03157895 -0.03026736 0.00000000
v 0.02868358 -0.03327045 0.00000000
v 0.02166323 -0.03807540 0.00000000
v 0.01300341 -0.04127869 0.00000000
v 0.00270409 -0.04288034 0.00000000
v -0.00306037 -0.04308054 0.00000000
v -0.01113166 -0.04308054 0.00000000
v -0.01113166 -0.02522280 0.00000000
v -0.00450647 -0.02522280 0.00000000
v -0.00112136 -0.02509931 0.00000000
v 0.00487326 -0.02411142 0.00000000
v 0.00983374 -0.02213564 0.00000000
v 0.01376009 -0.01917196 0.00000000
v 0.01533546 -0.01731966 0.00000000
v 0.01669119 -0.01515680 0.00000000
v 0.01886035 -0.00965823 0.00000000
v 0.02075837 0.00152178 0.00000000
v 0.02111989 0.01092988 0.00000000
v 0.02111989 0.15691946 0.00000000
v 0.04234068 0.15691946 0.04000000
v 0.04234068 0.01092988 0.04000000
v 0.04217252 0.00407716 0.04000000
v 0.04082731 -0.00816851 0.04000000
v 0.03813688 -0.01846782 0.04000000
v 0.03410123 -0.02682077 0.04000000
v 0.03157895 -0.03026736 0.04000000
v 0.02868358 -0.03327045 0.04000000
v 0.02166323 -0.03807540 0.04000000
v 0.01300341 -0.04127869 0.04000000
v 0.00270409 -0.04288034 0.04000000
v -0.00306037 -0.04308054 0.04000000
v -0.01113166 -0.04308054 0.04000000
v -0.01113166 -0.02522280 0.04000000
v -0.00450647 -0.02522280 0.04000000
v -0.00112136 -0.02509931 0.04000000
v 0.00487326 -0.02411142 0.04000000
v 0.00983374 -0.02213564 0.04000000
v 0.01376009 -0.01917196 0.04000000
v 0.01533546 -0.01731966 0.04000000
v 0.01669119 -0.01515680 0.04000000
v 0.01886035 -0.00965823 0.04000000
v 0.02075837 0.00152178 0.04000000
v 0.02111989 0.01092988 0.04000000
v 0.02111989 0.15691946 0.04000000
vn 0.57735027 0.57735027 -0.57735027
vn 0.70979319 -0.00870714 -0.70435631
vn 0.71480265 -0.04794445 -0.69768081
vn 0.71081514 -0.13115708 -0.69104244
vn 0.68289081 -0.25143745 -0.68588581
vn 0.62271836 -0.37405183 -0.68724600
vn 0.55224959 -0.46463475 -0.69219574
vn 0.47044648 -0.55635130 -0.68494769
vn 0.33657063 -0.65085935 -0.68051621
vn 0.18319392 -0.70483382 -0.68530962
vn 0.06794215 -0.71685507 -0.69390394
vn 0.01234083 -0.71086448 -0.70322073
vn -0.57735027 -0.57735027 -0.57735027
vn -0.57735027 0.57735027 -0.57735027
vn -0.01281530 0.70283928 -0.71123323
vn -0.06903807 0.68879961 -0.72165701
vn -0.18245868 0.65624133 -0.73215855
vn -0.33086491 0.58762452 -0.73839409
vn -0.46708744 0.49509718 -0.73260365
vn -0.55662123 0.40784366 -0.72376540
vn -0.61153145 0.30896976 -0.72840028
vn -0.65710415 0.18324534 -0.73118758
vn -0.68821105 0.07133700 -0.72199487
vn -0.70260245 0.01349453 -0.71145463
vn -0.57735027 0.57735027 -0.57735027
vn 0.57735027 0.57735027 0.57735027
vn 0.70979319 -0.00870714 0.70435631
vn 0.71480265 -0.04794445 0.69768081
vn 0.71081514 -0.13115708 0.69104244
vn 0.68289081 -0.25143745 0.68588581
vn 0.62271836 -0.37405183 0.68724600
vn 0.55224959 -0.46463475 0.69219574
vn 0.47044648 -0.55635130 0.68494769
vn 0.33657063 -0.65085935 0.68051621
vn 0.18319392 -0.70483382 0.68530962
vn 0.06794215 -0.71685507 0.69390394
vn 0.01234083 -0.71086448 0.70322073
vn -0.57735027 -0.57735027 0.57735027
vn -0.57735027 0.57735027 0.57735027
vn -0.01281530 0.70283928 0.71123323
vn -0.06903807 0.68879961 0.72165701
vn -0.18245868 0.65624133 0.73215855
vn -0.33086491 0.58762452 0.73839409
vn -0.46708744 0.49509718 0.73260365
vn -0.55662123 0.40784366 0.72376540
vn -0.61153145 0.30896976 0.72840028
vn -0.65710415 0.18324534 0.73118758
vn -0.68821105 0.07133700 0.72199487
vn -0.70260245 0.01349453 0.71145463
vn -0.57735027 0.57735027 0.57735027
f 24//24 25//25 1//1
f 13//13 14//14 15//15
f 11//11 12//12 13//13
f 9//9 10//10 11//11
f 7//7 8//8 9//9
f 5//5 6//6 7//7
f 3//3 4//4 5//5
f 1//1 2//2 3//3
f 23//23 24//24 1//1
f 13//13 15//15 16//16
f 9//9 11//11 13//13
f 5//5 7//7 9//9
f 1//1 3//3 5//5
f 13//13 16//16 17//17
f 5//5 9//9 13//13
f 23//23 1//1 5//5
f 13//13 17//17 18//18
f 22//22 23//23 5//5
f 13//13 18//18 19//19
f 21//21 22//22 5//5
f 5//5 13//13 19//19
f 20//20 21//21 5//5
f 5//5 19//19 20//20
f 26//26 50//50 49//49
f 40//40 39//39 38//38
f 38//38 37//37 36//36
f 36//36 35//35 34//34
f 34//34 33//33 32//32
f 32//32 31//31 30//30
f 30//30 29//29 28//28
f 28//28 27//27 26//26
f 26//26 49//49 48//48
f 41//41 40//40 38//38
f 38//38 36//36 34//34
f 34//34 32//32 30//30
f 30//30 28//28 26//26
f 42//42 41//41 38//38
f 38//38 34//34 30//30
f 30//30 26//26 48//48
f 43//43 42//42 38//38
f 30//30 48//48 47//47
f 44//44 43//43 38//38
f 30//30 47//47 46//46
f 44//44 38//38 30//30
f 30//30 46//46 45//45
f 45//45 44//44 30//30
f 26//26 27//27 1//1
f 1//1 27//27 2//2
f 27//27 28//28 2//2
f 2//2 28//28 3//3
f 28//28 29//29 3//3
f 3//3 29//29 4//4
f 29//29 30//30 4//4
f 4//4 30//30 5//5
f 30//30 31//31 5//5
f 5//5 31//31 6//6
f 31//31 32//32 6//6
f 6//6 32//32 7//7
f 32//32 33//33 7//7
f 7//7 33//33 8//8
f 33//33 34//34 8//8
f 8//8 34//34 9//9
f 34//34 35//35 9//9
f 9//9 35//35 10//10
f 35//35 36//36 10//10
f 10//10 36//36 11//11
f 36//36 37//37 11//11
f 11//11 37//37 12//12
f 37//37 38//38 12//12
f 12//12 38//38 13//13
f 38//38 39//39 13//13
f 13//13 39//39 14//14
f 39//39 40//40 14//14
f 14//14 40//40 15//15
f 40//40 41//41 15//15
f 15//15 41//41 16//16
f 41//41 42//42 16//16
f 16//16 42//42 17//17
f 42//42 43//43 17//17
f 17//17 43//43 18//18
f 43//43 44//44 18//18
f 18//18 44//44 19//19
f 44//44 45//45 19//19
f 19//19 45//45 20//20
f 45//45 46//46 20//20
f 20//20 46//46 21//21
f 46//46 47//47 21//21
f 21//21 47//47 22//22
f 47//47 48//48 22//22
f 22//22 48//48 23//23
f 48//48 49//49 23//23
f 23//23 49//49 24//24
f 50//50 26//26 25//25
f 25//25 26//26 1//1
f 49//49 50//50 24//24
f 24//24 50//50 25//25

