# https://github.com/mikedh/trimesh
v 0.17252465 0.20000000 0.00000000
v 0.17252465 0.17933991 0.00000000
v 0.04607801 0.02276039 0.00000000
v 0.17561080 0.02276039 0.00000000
v 0.17561080 0.00000000 0.00000000
v 0.01234462 0.00000000 0.00000000
v 0.01234462 0.02061723 0.00000000
v 0.13879126 0.17719674 0.00000000
v 0.01538791 0.17719674 0.00000000
v 0.01538791 0.20000000 0.00000000
v 0.17252465 0.20000000 0.04000000
v 0.17252465 0.17933991 0.04000000
v 0.04607801 0.02276039 0.04000000
v 0.17561080 0.02276039 0.04000000
v 0.17561080 0.00000000 0.04000000
v 0.01234462 0.00000000 0.04000000
v 0.01234462 0.02061723 0.04000000
v 0.13879126 0.17719674 0.04000000
v 0.01538791 0.17719674 0.04000000
v 0.01538791 0.20000000 0.04000000
vn 0.57735027 0.57735027 -0.57735027
vn 0.72507042 -0.25621128 -0.63924070
vn 0.21982699 0.10503395 -0.96986801
vn 0.57735027 0.57735027 -0.57735027
vn 0.57735027 -0.57735027 -0.57735027
vn -0.57735027 -0.57735027 -0.57735027
vn -0.72507042 0.25621128 -0.63924070
vn -0.21982699 -0.10503395 -0.96986801
vn -0.57735027 -0.57735027 -0.57735027
vn -0.57735027 0.57735027 -0.57735027
vn 0.57735027 0.57735027 0.57735027
vn 0.72507042 -0.25621128 0.63924070
vn 0.21982699 0.10503395 0.96986801
vn 0.57735027 0.57735027 0.57735027
vn 0.57735027 -0.57735027 0.57735027
vn -0.57735027 -0.57735027 0.57735027
vn -0.72507042 0.25621128 0.63924070
vn -0.21982699 -0.10503395 0.96986801
vn -0.57735027 -0.57735027 0.57735027
vn -0.57735027 0.57735027 0.57735027
f 9//9 10//10 1//1
f 6//6 7//7 8//8
f 4//4 5//5 6//6
f 1//1 2//2 3//3
f 8//8 9//9 1//1
f 3//3 4//4 6//6
f 8//8 1//1 3//3
f 3//3 6//6 8//8
f 11//11 20//20 19//19
f 18//18 17//17 16//16
f 16//16 15//15 14//14
f 13//13 12//12 11//11
f 11//11 19//19 18//18
f 16//16 14//14 13//13
f 13//13 11//11 18//18
f 18//18 16//16 13//13
f 11//11 12//12 1//1
f 1//1 12//12 2//2
f 12//12 13//13 2//2
f 2//2 13//13 3//3
f 13//13 14//14 3//3
f 3//3 14//14 4//4
f 14//14 15//15 4//4
f 4//4 15//15 5//5
f 15//15 16//16 5//5
f 5//5 16//16 6//6
f 16//16 17//17 6//6
f 6//6 17//17 7//7
f 17//17 18//18 7//7
f 7//7 18//18 8//8
f 18//18 19//19 8//8
f 8//8 19//19 9//9
f 20//20 11//11 10//10
f 10//10 11//11 1//1
f 19//19 20//20 9//9
f 9//9 20//20 10//10

